<mxfile host="app.diagrams.net" agent="Mozilla/5.0 (Windows NT 10.0; Win64; x64) AppleWebKit/537.36 (KHTML, like Gecko) Chrome/134.0.0.0 Safari/537.36" version="26.2.4">
  <diagram name="Page-1" id="o2XImDy_8jP4Dslzk0g-">
    <mxGraphModel dx="1044" dy="567" grid="1" gridSize="10" guides="1" tooltips="1" connect="1" arrows="1" fold="1" page="1" pageScale="1" pageWidth="850" pageHeight="1100" math="0" shadow="0">
      <root>
        <mxCell id="0" />
        <mxCell id="1" parent="0" />
        <mxCell id="AKJ3ElWmhiLYhl9FfXgz-1" value="" style="rounded=0;whiteSpace=wrap;html=1;" parent="1" vertex="1">
          <mxGeometry x="275" y="280" width="300" height="560" as="geometry" />
        </mxCell>
        <mxCell id="AKJ3ElWmhiLYhl9FfXgz-2" value="Melihat Lowongan Pekerjaan" style="ellipse;whiteSpace=wrap;html=1;fontSize=14;" parent="1" vertex="1">
          <mxGeometry x="295" y="350" width="260" height="80" as="geometry" />
        </mxCell>
        <mxCell id="AKJ3ElWmhiLYhl9FfXgz-3" value="Melamar Pekerjaan&amp;nbsp;" style="ellipse;whiteSpace=wrap;html=1;fontSize=14;" parent="1" vertex="1">
          <mxGeometry x="295" y="470" width="260" height="80" as="geometry" />
        </mxCell>
        <mxCell id="AKJ3ElWmhiLYhl9FfXgz-4" value="&amp;nbsp;Menerima Data Pelamar Pekerjaan" style="ellipse;whiteSpace=wrap;html=1;fontSize=14;" parent="1" vertex="1">
          <mxGeometry x="295" y="590" width="260" height="80" as="geometry" />
        </mxCell>
        <mxCell id="AKJ3ElWmhiLYhl9FfXgz-5" value="Mengubah, Menambahkan Mengedit Data/Informasi Lowongan Pekerjaan" style="ellipse;whiteSpace=wrap;html=1;fontSize=14;" parent="1" vertex="1">
          <mxGeometry x="295" y="710" width="260" height="80" as="geometry" />
        </mxCell>
        <mxCell id="AKJ3ElWmhiLYhl9FfXgz-7" value="Career Astacode" style="text;html=1;align=center;verticalAlign=middle;whiteSpace=wrap;rounded=0;fontSize=20;fontStyle=1" parent="1" vertex="1">
          <mxGeometry x="330" y="300" width="190" height="30" as="geometry" />
        </mxCell>
        <mxCell id="AKJ3ElWmhiLYhl9FfXgz-8" value="User" style="shape=umlActor;verticalLabelPosition=bottom;verticalAlign=top;html=1;outlineConnect=0;" parent="1" vertex="1">
          <mxGeometry x="50" y="485" width="65" height="130" as="geometry" />
        </mxCell>
        <mxCell id="AKJ3ElWmhiLYhl9FfXgz-9" value="Instansi" style="shape=umlActor;verticalLabelPosition=bottom;verticalAlign=top;html=1;outlineConnect=0;" parent="1" vertex="1">
          <mxGeometry x="720" y="485" width="65" height="130" as="geometry" />
        </mxCell>
        <mxCell id="AKJ3ElWmhiLYhl9FfXgz-11" value="" style="endArrow=none;html=1;rounded=0;exitX=1;exitY=0.3333333333333333;exitDx=0;exitDy=0;exitPerimeter=0;entryX=0;entryY=0.5;entryDx=0;entryDy=0;" parent="1" source="AKJ3ElWmhiLYhl9FfXgz-8" target="AKJ3ElWmhiLYhl9FfXgz-2" edge="1">
          <mxGeometry width="50" height="50" relative="1" as="geometry">
            <mxPoint x="350" y="550" as="sourcePoint" />
            <mxPoint x="400" y="500" as="targetPoint" />
          </mxGeometry>
        </mxCell>
        <mxCell id="AKJ3ElWmhiLYhl9FfXgz-12" value="" style="endArrow=none;html=1;rounded=0;exitX=1;exitY=0.3333333333333333;exitDx=0;exitDy=0;exitPerimeter=0;entryX=0;entryY=0.5;entryDx=0;entryDy=0;" parent="1" source="AKJ3ElWmhiLYhl9FfXgz-8" target="AKJ3ElWmhiLYhl9FfXgz-3" edge="1">
          <mxGeometry width="50" height="50" relative="1" as="geometry">
            <mxPoint x="125" y="538" as="sourcePoint" />
            <mxPoint x="305" y="400" as="targetPoint" />
          </mxGeometry>
        </mxCell>
        <mxCell id="AKJ3ElWmhiLYhl9FfXgz-13" value="" style="endArrow=none;html=1;rounded=0;exitX=0;exitY=0.3333333333333333;exitDx=0;exitDy=0;exitPerimeter=0;entryX=1;entryY=0.5;entryDx=0;entryDy=0;" parent="1" source="AKJ3ElWmhiLYhl9FfXgz-9" target="AKJ3ElWmhiLYhl9FfXgz-4" edge="1">
          <mxGeometry width="50" height="50" relative="1" as="geometry">
            <mxPoint x="125" y="538" as="sourcePoint" />
            <mxPoint x="305" y="400" as="targetPoint" />
          </mxGeometry>
        </mxCell>
        <mxCell id="AKJ3ElWmhiLYhl9FfXgz-14" value="" style="endArrow=none;html=1;rounded=0;entryX=1;entryY=0.5;entryDx=0;entryDy=0;" parent="1" target="AKJ3ElWmhiLYhl9FfXgz-5" edge="1">
          <mxGeometry width="50" height="50" relative="1" as="geometry">
            <mxPoint x="720" y="530" as="sourcePoint" />
            <mxPoint x="565" y="640" as="targetPoint" />
          </mxGeometry>
        </mxCell>
      </root>
    </mxGraphModel>
  </diagram>
</mxfile>
